#!OML:ASF H:\Terrain\Patient Classification 1\Animal1\Tuesday\Animal1.ASF
:FULLY-SPECIFIED
:DEGREES
2293
root 10.8957 16.6579 -10.9788 22.7601 -1.47648 0.802055
lowerback 6.3341 1.46858 -1.62874
upperback -5.44835 1.88453 0.867227
thorax -9.41999 1.06257 1.56336
lowerneck -10.1184 1.76092 -4.55667
upperneck 21.8823 2.32866 4.47398
head 8.33298 1.17996 2.50121
rclavicle 8.24956e-015 -5.1684e-015
rhumerus 16.1537 0.351934 -68.7734
rradius 54.0212
rwrist 21.1382
rhand -36.6893 -659.219
rfingers 7.12502
rthumb -9.77492 31.0277
lclavicle 8.24956e-015 -5.1684e-015
lhumerus 4.21353 -16.7392 69.9922
lradius 84.4935
lwrist -52.3992
lhand -22.1411 53.9905
lfingers 7.12502
lthumb 4.27253 1883.93
rfemur -34.6686 30.2441 10.2644
rtibia 21.9833
rfoot -23.5598 -43.4849
rtoes 32.1962
lfemur -37.0834 -35.2363 2.5813
ltibia 18.2623
lfoot -20.5797 31.913
ltoes 16.9628
2294
root 10.8928 16.6579 -10.9737 22.7908 -1.55736 1.01406
lowerback 6.28524 1.47196 -1.86386
upperback -5.44281 1.85817 0.788788
thorax -9.38976 1.06209 1.61689
lowerneck -10.1172 1.7906 -4.47988
upperneck 21.8311 2.35708 4.46749
head 8.31514 1.19931 2.48757
rclavicle 5.26779e-015 -2.38542e-015
rhumerus 16.1638 0.366661 -68.7745
rradius 54.0345
rwrist 21.1281
rhand -36.6703 -659.06
rfingers 7.12502
rthumb -9.75654 31.1859
lclavicle 5.26779e-015 -2.38542e-015
lhumerus 4.58975 -17.1215 69.4547
lradius 84.4568
lwrist -52.4504
lhand -21.3989 54.6831
lfingers 7.12502
lthumb 4.98918 1884.6
rfemur -34.7148 30.1399 10.0604
rtibia 22.0387
rfoot -23.9228 -43.3247
rtoes 32.8615
lfemur -37.0535 -35.2565 2.34741
ltibia 18.1964
lfoot -20.6802 31.9149
ltoes 17.0853
2295
root 10.8895 16.6572 -10.9707 22.8614 -1.60353 1.26153
lowerback 6.20161 1.43303 -2.1501
upperback -5.4414 1.7717 0.726654
thorax -9.34299 1.0362 1.72588
lowerneck -10.1026 1.80784 -4.53813
upperneck 21.7638 2.36608 4.58467
head 8.28628 1.21077 2.53567
rclavicle -1.5207e-014 -1.59028e-014
rhumerus 16.2178 0.546164 -68.7325
rradius 53.972
rwrist 21.2262
rhand -37.1699 -659.387
rfingers 7.12502
rthumb -10.2385 30.8823
lclavicle -1.5207e-014 -1.59028e-014
lhumerus 4.84443 -17.432 68.93
lradius 84.199
lwrist -51.8424
lhand -22.8781 55.0661
lfingers 7.12502
lthumb 3.5608 1885.02
rfemur -34.9158 30.2701 9.65495
rtibia 22.1773
rfoot -24.8474 -43.282
rtoes 33.6558
lfemur -37.0132 -35.1595 2.05251
ltibia 18.0283
lfoot -20.6948 31.743
ltoes 16.939
2296
root 10.8887 16.658 -10.9684 22.8469 -1.62199 1.30338
lowerback 6.21115 1.3765 -2.1965
upperback -5.40503 1.68998 0.723957
thorax -9.30608 0.998516 1.76111
lowerneck -10.1045 1.82989 -4.6375
upperneck 21.6953 2.38639 4.71878
head 8.25862 1.22593 2.59763
rclavicle 1.46107e-014 -3.18055e-015
rhumerus 16.3209 0.909339 -68.6552
rradius 53.8467
rwrist 21.521
rhand -38.2228 -660.148
rfingers 7.12502
rthumb -11.2542 30.174
lclavicle 1.46107e-014 -3.18055e-015
lhumerus 5.1139 -17.5804 68.307
lradius 84.1365
lwrist -51.4596
lhand -23.8997 55.0186
lfingers 7.12502
lthumb 2.57424 1884.98
rfemur -34.988 30.2978 9.59063
rtibia 22.3541
rfoot -25.2281 -43.1326
rtoes 33.8494
lfemur -36.8788 -35.164 1.98895
ltibia 17.8103
lfoot -20.4915 31.7673
ltoes 16.6629
2297
root 10.8868 16.6581 -10.9659 22.8376 -1.70086 1.32086
lowerback 6.19887 1.3555 -2.26649
upperback -5.37729 1.65437 0.722331
thorax -9.26896 0.985017 1.80437
lowerneck -10.1134 1.84324 -4.63768
upperneck 21.6932 2.40203 4.73153
head 8.25846 1.23441 2.60348
rclavicle -8.54774e-015 -7.15625e-015
rhumerus 16.4002 1.18599 -68.5882
rradius 53.6968
rwrist 21.625
rhand -38.5017 -660.952
rfingers 7.12502
rthumb -11.5231 29.3847
lclavicle -8.54774e-015 -7.15625e-015
lhumerus 5.38313 -17.5504 67.9285
lradius 84.1869
lwrist -51.6033
lhand -23.4327 54.9389
lfingers 7.12502
lthumb 3.02527 1884.9
rfemur -35.0501 30.2563 9.59151
rtibia 22.5171
rfoot -24.7407 -43.1569
rtoes 33.0607
lfemur -36.7538 -35.1983 1.97188
ltibia 17.604
lfoot -19.9999 32.0865
ltoes 15.5113
2298
root 10.883 16.6556 -10.9635 22.854 -1.81465 1.37606
lowerback 6.15941 1.37364 -2.41664
upperback -5.37296 1.663 0.709172
thorax -9.24634 0.998352 1.87427
lowerneck -10.1178 1.8386 -4.6756
upperneck 21.7074 2.39067 4.78591
head 8.26306 1.23124 2.62745
rclavicle -8.44835e-015 -8.74653e-015
rhumerus 16.4405 1.31894 -68.5295
rradius 53.608
rwrist 21.5544
rhand -38.1871 -661.623
rfingers 7.12502
rthumb -11.2197 28.6967
lclavicle -8.44835e-015 -8.74653e-015
lhumerus 5.92781 -17.5825 67.4947
lradius 83.8189
lwrist -51.1394
lhand -23.7648 54.7647
lfingers 7.12502
lthumb 2.70446 1884.73
rfemur -35.1523 30.2699 9.51814
rtibia 22.6582
rfoot -24.7203 -43.068
rtoes 32.7328
lfemur -36.5895 -35.0679 1.83475
ltibia 17.4164
lfoot -19.4236 32.2595
ltoes 14.2588
2299
root 10.8806 16.6552 -10.9612 22.8409 -1.90347 1.49115
lowerback 6.13911 1.38604 -2.56219
upperback -5.35296 1.66117 0.661318
thorax -9.21597 1.00458 1.90598
lowerneck -10.0745 1.84397 -4.67561
upperneck 21.6225 2.38921 4.82323
head 8.22593 1.23454 2.63695
rclavicle -1.04362e-014 -1.19271e-015
rhumerus 16.5104 1.42013 -68.437
rradius 53.508
rwrist 21.6222
rhand -37.9235 -661.635
rfingers 7.12502
rthumb -10.9655 28.6712
lclavicle -1.04362e-014 -1.19271e-015
lhumerus 6.55302 -17.8787 66.7788
lradius 83.6132
lwrist -50.6926
lhand -23.729 54.6558
lfingers 7.12502
lthumb 2.73905 1884.62
rfemur -35.2155 30.291 9.38925
rtibia 22.7841
rfoot -25.6713 -42.6865
rtoes 33.7389
lfemur -36.4323 -35.0228 1.65583
ltibia 17.2476
lfoot -19.1749 32.2781
ltoes 13.5805
2300
root 10.8795 16.6588 -10.9586 22.8247 -1.95577 1.63725
lowerback 6.10022 1.38403 -2.67825
upperback -5.31014 1.64176 0.590345
thorax -9.14665 0.998641 1.89974
lowerneck -10.0934 1.85819 -4.62935
upperneck 21.5988 2.39614 4.8462
head 8.22122 1.24404 2.63726
rclavicle 1.19271e-014 7.55382e-015
rhumerus 16.5968 1.48585 -68.3425
rradius 53.4325
rwrist 21.6351
rhand -37.602 -660.967
rfingers 7.12502
rthumb -10.6554 29.3233
lclavicle 1.19271e-014 7.55382e-015
lhumerus 7.01669 -18.2267 66.0751
lradius 83.7011
lwrist -50.7964
lhand -22.6576 54.3343
lfingers 7.12502
lthumb 3.7738 1884.28
rfemur -35.2616 30.307 9.21835
rtibia 22.8894
rfoot -26.5207 -42.3479
rtoes 34.7863
lfemur -36.3545 -35.1307 1.53403
ltibia 17.1095
lfoot -19.4924 32.1774
ltoes 14.3513
2301
root 10.8798 16.6608 -10.9574 22.863 -1.95688 1.65761
lowerback 6.05446 1.38603 -2.64135
upperback -5.29157 1.64683 0.55691
thorax -9.09693 0.996703 1.84393
lowerneck -10.162 1.84356 -4.61683
upperneck 21.651 2.36838 4.87881
head 8.25239 1.23527 2.64601
rclavicle -3.8763e-015 -4.77083e-015
rhumerus 16.6324 1.48795 -68.2898
rradius 53.4795
rwrist 21.4154
rhand -37.3666 -660.034
rfingers 7.12502
rthumb -10.4283 30.2448
lclavicle -3.8763e-015 -4.77083e-015
lhumerus 7.14713 -18.4077 65.6884
lradius 83.8159
lwrist -51.0041
lhand -21.9269 53.8848
lfingers 7.12502
lthumb 4.47938 1883.82
rfemur -35.3142 30.1854 9.22612
rtibia 22.9454
rfoot -25.9972 -42.4085
rtoes 34.0878
lfemur -36.3721 -35.1737 1.57433
ltibia 17.0354
lfoot -19.7072 32.0989
ltoes 15.0446
2302
root 10.8817 16.6616 -10.9569 22.8204 -1.82959 1.68159
lowerback 6.10559 1.33171 -2.55004
upperback -5.26041 1.58105 0.549702
thorax -9.08578 0.957834 1.79369
lowerneck -10.1583 1.81618 -4.63956
upperneck 21.6374 2.32682 4.91422
head 8.24839 1.2173 2.65739
rclavicle 2.88238e-014 -4.37326e-015
rhumerus 16.6783 1.51769 -68.2617
rradius 53.5005
rwrist 21.2543
rhand -37.2947 -659.586
rfingers 7.12502
rthumb -10.359 30.689
lclavicle 2.88238e-014 -4.37326e-015
lhumerus 6.87465 -18.3934 65.5753
lradius 84.0194
lwrist -51.296
lhand -21.4004 53.4543
lfingers 7.12502
lthumb 4.98773 1883.38
rfemur -35.2021 30.0879 9.29252
rtibia 22.9089
rfoot -25.6995 -42.6099
rtoes 33.4415
lfemur -36.3355 -35.0151 1.40447
ltibia 17.0884
lfoot -19.3708 31.9775
ltoes 14.2085
2303
root 10.8828 16.6615 -10.9546 22.7012 -1.62364 1.67883
lowerback 6.18014 1.23175 -2.42699
upperback -5.18354 1.45946 0.577189
thorax -9.03573 0.890068 1.77047
lowerneck -10.157 1.79488 -4.67794
upperneck 21.6348 2.29481 4.95656
head 8.24772 1.2031 2.67493
rclavicle -1.72943e-014 -2.38542e-015
rhumerus 16.7798 1.6769 -68.1957
rradius 53.3855
rwrist 21.4679
rhand -37.6492 -659.82
rfingers 7.12502
rthumb -10.7009 30.4721
lclavicle -1.72943e-014 -2.38542e-015
lhumerus 7.04805 -18.2445 65.2395
lradius 83.9309
lwrist -51.3339
lhand -20.6384 52.5415
lfingers 7.12502
lthumb 5.72349 1882.44
rfemur -34.9467 30.1376 9.39703
rtibia 22.7762
rfoot -26.4195 -42.6242
rtoes 34.3804
lfemur -36.2962 -34.9097 1.249
ltibia 17.272
lfoot -19.0346 31.7961
ltoes 13.3883
2304
root 10.8821 16.6626 -10.9516 22.6862 -1.60236 1.52215
lowerback 6.14867 1.22824 -2.26029
upperback -5.13972 1.47612 0.618811
thorax -8.96586 0.887983 1.71968
lowerneck -10.1939 1.75989 -4.69575
upperneck 21.688 2.24138 4.99632
head 8.27433 1.18018 2.68821
rclavicle -9.93923e-016 4.77083e-015
rhumerus 16.8564 1.95577 -67.9327
rradius 53.2342
rwrist 21.608
rhand -38.0899 -660.257
rfingers 7.12502
rthumb -11.126 30.0583
lclavicle -9.93923e-016 4.77083e-015
lhumerus 7.72072 -18.1184 64.7355
lradius 83.5646
lwrist -50.7471
lhand -19.1791 50.9275
lfingers 7.12502
lthumb 7.13223 1880.79
rfemur -34.8176 30.1384 9.60664
rtibia 22.6127
rfoot -26.2617 -42.5896
rtoes 34.7771
lfemur -36.3664 -34.9098 1.41245
ltibia 17.4869
lfoot -19.2086 31.78
ltoes 13.3387
2305
root 10.8799 16.6655 -10.9497 22.7577 -1.64191 1.34001
lowerback 6.05817 1.27836 -2.11707
upperback -5.14257 1.56253 0.6463
thorax -8.91593 0.921847 1.65797
lowerneck -10.2291 1.72595 -4.70671
upperneck 21.7276 2.18031 5.07335
head 8.29596 1.15819 2.71178
rclavicle 2.47487e-014 6.36111e-015
rhumerus 16.9005 2.24983 -67.5447
rradius 53.2415
rwrist 20.9449
rhand -37.8843 -660.055
rfingers 7.12502
rthumb -10.9276 30.2496
lclavicle 2.47487e-014 6.36111e-015
lhumerus 8.426 -18.0257 64.3269
lradius 83.2433
lwrist -49.7111
lhand -16.4149 49.234
lfingers 7.12502
lthumb 9.79986 1878.99
rfemur -34.8117 30.1249 9.77708
rtibia 22.4648
rfoot -26.363 -42.2959
rtoes 35.6839
lfemur -36.5078 -34.7964 1.62563
ltibia 17.6729
lfoot -19.6573 31.6266
ltoes 14.1048
2306
root 10.8787 16.6657 -10.949 22.7879 -1.46536 1.30873
lowerback 6.033 1.24115 -2.02417
upperback -5.13497 1.52374 0.664408
thorax -8.88833 0.89742 1.63096
lowerneck -10.2351 1.72942 -4.72751
upperneck 21.7156 2.17187 5.15408
head 8.29174 1.16073 2.74144
rclavicle 2.46493e-014 1.15295e-014
rhumerus 16.8941 2.47739 -67.2432
rradius 53.4704
rwrist 19.9219
rhand -37.309 -659.325
rfingers 7.12502
rthumb -10.3727 30.9507
lclavicle 2.46493e-014 1.15295e-014
lhumerus 9.23181 -17.7095 64.1163
lradius 82.9985
lwrist -48.4345
lhand -11.7352 47.8508
lfingers 7.12502
lthumb 14.3121 1877.34
rfemur -34.7689 30.2065 9.78268
rtibia 22.3569
rfoot -27.5596 -41.9437
rtoes 37.4231
lfemur -36.6684 -34.7197 1.71265
ltibia 17.8081
lfoot -19.5318 31.3752
ltoes 14.3852
